<?xml version="1.0" encoding="utf-8"?>
<!DOCTYPE svg PUBLIC "-//W3C//DTD SVG 1.0//EN" "http://www.w3.org/TR/2001/REC-SVG-20010904/DTD/svg10.dtd">
<svg version="1.0" xmlns="http://www.w3.org/2000/svg" width="1024px" height="1024px" viewBox="0 0 1024 1024" preserveAspectRatio="xMidYMid meet">
 <g fill="#fdfcfc">
  <path d="M0 512 l0 -512 512 0 512 0 0 512 0 512 -512 0 -512 0 0 -512z m307.60 323.20 c12.40 -1.70 19.90 -5.20 26.95 -12.50 7.95 -8.30 11.20 -16.95 11.15 -29.45 0 -5.70 -0.20 -7.75 -1.20 -11.25 -2.15 -7.95 -5.45 -13.55 -11.50 -19.50 -5.40 -5.35 -12 -8.65 -21.50 -10.80 -2.95 -0.65 -7.10 -0.90 -19.35 -1.05 l-15.65 -0.25 0 42.80 0 42.80 12.75 0 c8.75 0 14.50 -0.25 18.35 -0.80z m114.90 -4.45 l0 -5.25 -19.75 0 -19.75 0 0 -13.50 0 -13.50 17.75 0 17.80 0 -0.15 -4.85 -0.15 -4.90 -17.60 -0.15 -17.65 -0.10 0 -14 0 -14 19.50 0 19.50 0 0 -5 0 -5 -25.25 0 -25.25 0 0 42.75 0 42.75 25.50 0 25.50 0 0 -5.25z m37.40 -26.50 l-0.15 -31.75 1.60 0 c1.45 0 1.90 0.45 6.40 7.15 2.65 3.90 6.35 9.35 8.30 12.10 1.95 2.75 3.90 5.55 4.35 6.25 0.45 0.70 2.75 3.95 5.10 7.25 8 11.15 18.85 26.50 20.25 28.65 l1.40 2.10 5.65 0 5.70 0 0 -42.75 0 -42.75 -5.50 0 -5.50 0 0 32.75 0 32.75 -1.75 0 c-1.50 0 -1.85 -0.25 -2.70 -1.85 -2.05 -3.95 -26.70 -40.80 -41.30 -61.75 l-1.30 -1.90 -5.75 0 -5.70 0 0 42.75 0 42.75 5.55 0 5.55 0 -0.20 -31.75z m119.10 -6 l0 -37.75 12.70 0 12.70 0 0.35 -3.20 c0.15 -1.75 0.15 -4 0 -5 l-0.35 -1.80 -31.70 0 -31.70 0 0 5 0 5 13.25 0 13.25 0 0 37.75 0 37.75 5.75 0 5.75 0 0 -37.75z m49.25 27.50 l3.40 -10.25 18.50 0.10 18.55 0.15 3.50 10.10 3.55 10.15 5.95 0 c5.45 0 5.90 -0.05 5.55 -0.85 -0.50 -1.20 -5.20 -14.10 -5.75 -15.65 -0.20 -0.70 -1.35 -3.85 -2.50 -7 -1.10 -3.15 -2.40 -6.75 -2.80 -8 -0.45 -1.25 -1.65 -4.60 -2.70 -7.50 -1.05 -2.90 -2.85 -7.95 -4 -11.25 -1.10 -3.30 -2.25 -6.45 -2.50 -7 -0.50 -1.05 -3.65 -10.20 -7.45 -21.35 l-2.30 -6.90 -7.10 0 c-3.95 0 -7.15 0.10 -7.15 0.15 0 0.20 -5.95 17.50 -11.60 33.85 -1.35 4 -3.15 9.15 -3.90 11.50 -1.40 4.25 -9 26.25 -11.90 34.65 -0.85 2.40 -1.70 4.60 -1.85 4.85 -0.20 0.30 1.75 0.50 5.40 0.50 l5.70 0 3.40 -10.25z m130.25 5 l0 -5.25 -18 0 -18 0 0 -37.50 0 -37.50 -5.75 0 -5.75 0 0 42.75 0 42.75 23.75 0 23.75 0 0 -5.25z m-523.60 -35.25 l5.10 0 0 -4.50 0 -4.50 -106.75 0 -106.75 0 0 4.45 c0 4.25 0.05 4.50 1.15 4.65 0.80 0.10 173.70 0.05 207.25 -0.10z m755.90 -0.15 c0.05 -0.05 0.20 -2.05 0.40 -4.45 l0.35 -4.40 -103.50 0 -103.55 0 0 4.45 c0 4.25 0.05 4.50 1.15 4.65 1.25 0.15 205 -0.05 205.15 -0.25z m-569.15 -80.35 c9.45 -0.90 18.90 -3.90 25.45 -8.05 3.60 -2.30 8.60 -7.10 11 -10.65 5.80 -8.45 8.70 -20.85 7.45 -31.45 -2.10 -17.15 -11.15 -28.40 -32.55 -40.60 -10.95 -6.25 -16.85 -11.05 -19.35 -15.90 -1.30 -2.45 -1.40 -3 -1.40 -8.85 0 -5.85 0.10 -6.40 1.35 -8.80 2.05 -3.90 5.25 -6.20 10.65 -7.75 3.65 -1.05 15.50 -0.90 20.15 0.20 4.20 1 9.65 3 11.95 4.35 l1.55 0.90 0.30 -4.05 c0.15 -2.25 0.50 -7.60 0.80 -11.85 0.25 -4.25 0.50 -8.10 0.50 -8.55 0 -1.25 -6.90 -4.10 -13.80 -5.70 -19.85 -4.60 -41.70 1.35 -53.15 14.50 -9.50 10.90 -12.70 27.50 -8.20 42 1.10 3.55 4.35 9.90 6.60 12.90 2.55 3.45 8.50 9.10 12.55 11.95 1.80 1.25 5.75 3.70 8.75 5.40 16.50 9.35 19.95 11.85 22.60 16.35 3.50 5.95 3.40 15.90 -0.10 21.25 -1.90 2.85 -6 5.65 -9.80 6.60 -4.20 1.05 -15.25 1.10 -21.05 0.05 -5.65 -0.95 -12.85 -3.35 -17.20 -5.70 l-3.50 -1.90 -1.15 10.80 c-0.60 5.95 -1.25 11.65 -1.40 12.65 -0.25 1.85 -0.25 1.85 2.65 3.15 12.40 5.55 26.05 7.95 38.35 6.75z m524.60 0 c21.20 -2.35 35.35 -12.40 41.25 -29.25 3.95 -11.35 3.70 -24.50 -0.75 -34.40 -4.15 -9.45 -13.45 -18.45 -27.30 -26.50 -13.65 -7.95 -19.05 -12.30 -21.40 -17.30 -1.15 -2.50 -1.30 -3.40 -1.30 -8.30 0 -6.60 0.90 -8.95 4.85 -12.50 3.90 -3.50 7.75 -4.50 16.90 -4.45 8.20 0 12.70 0.90 19.55 3.90 l3.90 1.65 0.25 -2.05 c0.30 -2.25 1 -16.10 1.05 -20.05 0 -2.45 -0.05 -2.50 -2.25 -3.60 -2.75 -1.35 -9 -3.35 -14 -4.45 -5.70 -1.25 -16.45 -1.15 -22.75 0.20 -5.85 1.25 -11.40 3.15 -13.35 4.60 -0.75 0.55 -1.65 1 -2 1 -1.15 0 -7.40 4.50 -10.35 7.45 -14.10 14.10 -15.90 37.75 -4.25 55.35 5.05 7.60 12.30 13.40 26.25 20.95 7.65 4.15 14.65 8.95 16.65 11.45 3.35 4.05 4.05 6.30 4.05 13.05 0 5.20 -0.15 6.35 -1.15 8.50 -3.30 7.10 -9.05 9.85 -20.85 9.90 -10 0 -20.20 -2.40 -28.05 -6.55 l-3.55 -1.90 -0.60 5.50 c-1.45 13.60 -1.95 19.05 -1.70 19.60 0.40 1.10 11.25 5.40 17 6.75 7.75 1.80 16.05 2.30 23.90 1.45z m-890.10 -5.60 c1.20 -6.25 5.90 -26.60 6.15 -26.85 0.15 -0.20 43.85 -0.10 44 0.10 0.05 0.05 1.65 7 3.50 15.50 l3.40 15.35 13.95 0 c13 0 13.90 -0.05 13.65 -0.85 -0.15 -0.50 -5.40 -21.50 -11.75 -46.65 -19.95 -79.40 -26.55 -105.15 -27 -105.65 -0.20 -0.20 -8.20 -0.30 -17.80 -0.25 l-17.45 0.15 -0.40 1.50 c-0.20 0.85 -1.65 6.25 -3.10 12 -1.50 5.80 -3.30 12.65 -4 15.25 -0.65 2.60 -2.35 9.15 -3.75 14.50 -1.35 5.35 -3.60 14.15 -5 19.50 -1.35 5.35 -3.75 14.60 -5.25 20.50 -1.50 5.90 -3.65 14.25 -4.75 18.50 -1.10 4.25 -3.70 14.50 -5.80 22.75 -2.10 8.25 -4.60 18 -5.55 21.65 -0.95 3.65 -1.70 6.75 -1.70 6.90 0 0.10 6.25 0.20 13.90 0.20 l13.90 0 0.85 -4.10z m176.85 -8.40 l0 -12 -22.25 0 -22.25 0 0 -64.50 0 -64.50 -14 0 -14 0 0 76.50 0 76.50 36.25 0 36.25 0 0 -12z m92.50 -0.25 l0 -12.25 -22.50 0 -22.50 0 0 -64.25 0 -64.25 -13.70 0 -13.70 0 -0.20 3.40 c-0.35 6.50 -0.45 143.45 -0.10 146.50 l0.35 3.10 36.15 0 36.20 0 0 -12.25z m186.70 5.65 c0.15 -3.65 0.50 -11.95 0.80 -18.40 0.30 -6.45 0.75 -16.25 1 -21.75 0.25 -5.50 0.70 -15.75 1 -22.75 0.30 -7 0.75 -17.35 1 -23 0.30 -5.60 0.50 -11.30 0.50 -12.65 l0 -2.40 1.85 0.15 c2.25 0.20 1.30 -2.20 9.40 23.90 7.20 23.15 8.55 27.50 16.80 53.95 l6.65 21.15 4.55 -0.30 c5.65 -0.45 11.30 -1.60 11.85 -2.40 1.15 -1.85 28.85 -88.25 30.10 -94 0.30 -1.25 0.55 -1.40 2.25 -1.40 l1.90 0 0.35 8.15 c0.95 22.65 4.70 92.80 5.10 96 l0.30 2.35 13.50 0 13.50 0 -0.30 -2.85 c-0.30 -3.10 -1.05 -12.95 -1.80 -24.65 -0.25 -4 -1.25 -18.25 -2.20 -31.75 -1 -13.45 -2 -27.85 -2.30 -32 -0.30 -4.10 -0.65 -8.75 -0.75 -10.25 -0.25 -2.80 -1.30 -17.45 -2.25 -31.50 -0.30 -4.25 -0.75 -10.25 -1 -13.30 -0.30 -3 -0.50 -5.75 -0.50 -6.10 0 -0.90 -33.45 -0.85 -33.75 0.05 -0.10 0.30 -1.30 4.45 -2.70 9.10 -1.40 4.70 -4.05 13.45 -5.95 19.50 -11.20 35.60 -17.65 56.40 -18.40 59.15 l-0.85 3.10 -1.90 0 c-1.85 0 -1.95 -0.10 -2.45 -2.10 -0.50 -1.90 -2.65 -8.90 -10 -32.40 -2.80 -9.05 -11.55 -38.30 -14.40 -48.25 l-2.45 -8.50 -17.50 -0.15 -17.50 -0.10 -0.60 7.60 c-0.85 10.85 -2.20 30.95 -5.05 74.90 -2.35 36.45 -2.85 44.10 -4 59.45 -0.30 3.70 -0.50 7.70 -0.50 8.90 l0 2.15 13.20 0 13.20 0 0.30 -6.60z m174.50 1.85 c0.40 -5.50 0.25 -122.65 -0.15 -137.75 l-0.30 -10.25 -13.35 -0.15 -13.40 -0.10 0 76.50 0 76.50 13.45 0 13.40 0 0.35 -4.75z m103.80 -7.50 l0 -12.25 -23 0 -23 0 0 -64.25 0 -64.25 -13.50 0 -13.50 0 0 76.15 c0 41.90 0.15 76.35 0.35 76.50 0.15 0.20 16.60 0.35 36.50 0.35 l36.15 0 0 -12.25z m95.50 0 l0 -12.25 -23.75 0 -23.75 0 0 -19.75 0 -19.75 20.25 0 20.25 0 0 -12 0 -12 -20.25 0 -20.25 0 0 -20.25 0 -20.25 22.50 0 22.50 0 0 -12.25 0 -12.25 -36.50 0 -36.50 0 0 74.65 c0 41 0.15 75.45 0.30 76.50 l0.35 1.85 37.40 0 37.45 0 0 -12.25z m-454.05 -196 c9.55 -2.30 19.10 -10.20 27.65 -23 3.75 -5.60 7.35 -12.55 19.10 -36.95 9.70 -20.15 17.75 -31.95 23.90 -35 4.95 -2.50 8.60 -1.50 13.45 3.55 5.55 5.75 9.75 12.75 19.55 32.40 12.35 24.90 14.10 28.10 19.75 36.55 10.70 16.10 21.75 24.20 31.55 22.95 10.55 -1.30 21.80 -8.05 31.45 -18.85 20.85 -23.25 53.55 -89.20 72.90 -147.15 7.60 -22.90 13.40 -45.60 16.45 -64.75 2.20 -14.05 3 -23.25 3 -35.75 0 -12.75 -0.35 -16.95 -2.25 -26.40 -3.40 -16.75 -12.55 -33.30 -23.80 -43.15 -5.10 -4.40 -8.10 -6.45 -13.90 -9.35 -9.10 -4.55 -19.45 -6.95 -30 -7 -19.05 -0.10 -39.20 7.20 -67 24.15 -3 1.85 -10.45 6.40 -16.50 10.10 -26.45 16.20 -36.90 21.05 -52.75 24.50 -4.75 1.05 -6.50 1.15 -19 1.15 -13.30 0 -13.95 -0.05 -19.70 -1.40 -3.25 -0.80 -6.30 -1.55 -6.75 -1.70 -1.45 -0.50 0.95 1.60 4.70 4.05 14.60 9.70 34.15 15.50 49.20 14.65 9.05 -0.55 19.85 -3.25 30.05 -7.60 5.25 -2.20 19.40 -9.40 28.60 -14.55 20.20 -11.20 29.65 -15.85 38.40 -18.70 7.60 -2.50 12.05 -3.40 19.25 -3.80 22.35 -1.25 39.20 9.70 45.40 29.55 2.80 8.95 3.10 11.70 3.10 29 0 15.55 -0.20 18.80 -2.05 32.50 -2.50 18.85 -7.70 41.50 -14.45 63 -15.30 48.50 -45.65 112.50 -61.55 129.70 -4.20 4.55 -7.15 6.05 -11.80 6.05 -8 0 -10.50 -3.05 -27.15 -33 -22.35 -40.25 -31.65 -51.75 -45.55 -56.50 -12.40 -4.30 -26.50 2.15 -38.80 17.80 -4.45 5.60 -9.80 14.10 -16.15 25.45 -18.55 33.25 -22.40 39.25 -27.85 43.40 -2.40 1.75 -2.70 1.85 -6.35 1.85 -4.65 0 -7.10 -1.05 -12.05 -5.15 -12.40 -10.35 -37.15 -48.75 -65.75 -102.10 -1.05 -1.90 -2.50 -4.60 -3.25 -6 -0.75 -1.35 -2.25 -4.20 -3.35 -6.25 -1.10 -2.05 -5.40 -10.05 -9.55 -17.75 -4.10 -7.70 -7.95 -14.90 -8.50 -16 l-1.05 -2 -0.05 2.50 c0 1.40 0.45 6.35 1 11 5.25 44.45 22.65 90.50 49.25 130.50 13.65 20.50 26.10 33.10 39.25 39.75 8.30 4.20 13.70 5.20 19.95 3.75z m80.20 -162.20 c18.60 -2.90 30.20 -6.45 46.10 -14.30 15.75 -7.70 26.25 -15.25 38.15 -27.45 6.30 -6.40 6.80 -6.80 8.60 -6.80 1.70 0 2.20 0.35 4.75 3.15 1.55 1.70 4.50 5.55 6.50 8.50 2 3 3.80 5.20 3.90 4.95 0.85 -1.30 2.35 -8.20 2.35 -10.65 0 -3.70 -1.90 -10.15 -4.05 -13.70 -5.05 -8.45 -15.40 -13.85 -26.50 -13.85 -4.05 0 -13.60 1.30 -17 2.25 l-2.10 0.60 2.95 1.80 c1.60 1 5.70 3.35 9.10 5.25 6 3.35 6.10 3.45 6.10 5.20 0 1.65 -0.20 1.90 -5.15 5.05 -4.35 2.85 -10.30 6.40 -16.60 9.95 -0.80 0.45 -1.95 0.95 -2.50 1.10 -0.55 0.20 -3.15 1.25 -5.75 2.40 -11.60 5.10 -25.75 8.60 -40.25 10 -7.05 0.65 -25.35 0.65 -31.65 0 -21.55 -2.25 -41.70 -8.20 -59.10 -17.35 -37.35 -19.75 -64.85 -48.55 -81.25 -85.15 -3.30 -7.35 -7.25 -19.45 -7.25 -22.30 l0 -2.25 5.65 -2.70 c21.05 -9.90 37.05 -13.20 61.10 -12.60 14.40 0.40 23.35 1.50 48 5.85 12.50 2.20 17 2.80 25.50 3.50 7.50 0.60 8.05 0.60 7.50 0.05 -0.80 -0.80 -21.05 -10.80 -28.75 -14.20 -23.80 -10.60 -52.45 -16.95 -76.75 -16.95 -13.35 0 -28.55 1.85 -41.35 5.10 -3.25 0.85 -6.65 1.50 -7.60 1.50 -1.70 0 -1.75 0 -2 -2.60 -2.05 -18.35 -1.50 -41.15 1.45 -61.60 0.70 -4.65 1.15 -8.55 1.05 -8.70 -0.30 -0.25 -5.45 6.30 -8.55 10.95 -6.20 9.35 -12 22.65 -15 34.45 -2.65 10.65 -3.55 16.75 -4.20 29 l-0.45 7.95 -2.70 4.15 c-15.45 23.50 -23.60 51.50 -21.45 73.90 1.90 19.60 8.30 36.55 19.30 51.20 1.60 2.10 2.90 3.80 2.95 3.80 0.05 0 -0.20 -1.85 -0.60 -4.10 -1.10 -6.80 -1.40 -33.20 -0.40 -42.25 1.05 -9.75 3.25 -20.25 5.80 -27.80 2.70 -7.90 2.70 -7.85 4.75 -7.85 1.50 0 1.75 0.20 2.25 1.90 1.05 3.30 5 12.15 8.55 19.20 8.60 16.95 18.50 30.80 31.70 44.30 15.85 16.30 34.40 29.65 56.20 40.60 19.20 9.60 39.30 15.60 61.30 18.25 8.85 1.05 28.30 0.70 37.40 -0.70z"/>
  <path d="M288.50 793 l0 -32.50 7.65 0 c11.55 0 17.80 1.25 23.60 4.60 5.80 3.40 10.90 10.15 12.75 17 1.40 5 1.70 16.30 0.55 20.90 -1.85 7.65 -6.50 14.15 -12.60 17.75 -6.30 3.70 -11.55 4.75 -23.80 4.75 l-8.15 0 0 -32.50z"/>
  <path d="M636 803.90 c0 -0.90 2.15 -8.15 4.75 -16.15 2.60 -7.95 5.30 -16.45 6 -18.85 l1.30 -4.40 1.70 0 c1.60 0 1.70 0.10 2.50 2.90 0.95 3.35 6.75 20.30 9.70 28.50 1.15 3.15 2.05 6.55 2.05 7.65 l0 1.95 -14 0 -14 0 0 -1.60z"/>
  <path d="M68 656.80 c0 -0.65 1.10 -5.95 2.45 -11.85 1.35 -5.90 3.65 -15.75 5.10 -21.95 1.40 -6.20 3.55 -15.50 4.70 -20.75 l2.10 -9.50 1.95 0 c1.70 0 1.95 0.15 2.10 1.25 0.20 1.70 6.95 31.70 11.65 51.70 1.05 4.60 1.95 9.30 1.95 10.35 l0 1.95 -16 0 -16 0 0 -1.20z"/>
 </g>
 <g fill="#4d5d60">
  <path d="M408.50 716.65 c-8 -0.55 -18.80 -3.35 -26.60 -6.85 -3.50 -1.55 -3.40 -0.50 -1.65 -16.05 0.70 -6.05 1.25 -11.70 1.25 -12.50 0 -2.45 0.80 -2.85 2.95 -1.40 7.60 5.20 19.70 8.65 30.45 8.65 6.85 0 11 -1.05 14.45 -3.60 3.40 -2.50 4.90 -4.80 5.95 -9.05 0.75 -2.95 0.75 -3.90 0.25 -6.75 -1.55 -8.40 -4.50 -11.10 -24.80 -22.60 -7.30 -4.15 -11.25 -6.95 -15.70 -11.20 -7.40 -7.10 -11.60 -14.65 -13.60 -24.55 -0.80 -3.90 -0.80 -15.20 0 -19 3.05 -14.70 10.75 -24.75 23.80 -31.05 15.25 -7.40 38.45 -7.35 53.95 0.10 l1.95 0.95 -0.35 5.50 c-1.05 18.55 -1.40 23.50 -1.60 23.75 -0.15 0.10 -1.60 -0.50 -3.25 -1.40 -6.95 -3.85 -14.30 -5.80 -22.20 -5.80 -9.75 -0.05 -15.55 2.55 -18.65 8.40 -1.20 2.25 -1.35 3.10 -1.35 7.30 0 4.20 0.15 5.05 1.40 7.35 2.50 4.85 8.40 9.65 19.35 15.90 17.90 10.15 27.05 19.75 30.95 32.40 3.30 10.80 2.30 26.15 -2.45 36.65 -2.90 6.45 -8.50 12.95 -14.40 16.65 -9.95 6.30 -24.70 9.35 -40.10 8.20z"/>
  <path d="M927.50 716.25 c-5.65 -0.85 -8.20 -1.50 -13.25 -3.25 -7 -2.40 -10.25 -4 -10.55 -5.25 -0.15 -0.60 0.20 -5.80 0.80 -11.55 0.55 -5.75 1.15 -11.90 1.30 -13.70 0.40 -4.75 0.45 -4.80 2.30 -3.25 3.80 3.20 13.05 6.85 21.45 8.50 5.30 1.05 14.25 1.05 18.05 0 5.05 -1.30 8.90 -4.50 11 -9 0.95 -2.05 1.15 -3.35 1.15 -7 -0.05 -5.10 -1 -7.85 -4.05 -11.55 -2 -2.50 -9 -7.30 -16.65 -11.45 -17.15 -9.30 -24.50 -16.05 -29.80 -27.35 -5.80 -12.35 -5.55 -29.90 0.55 -42.05 2 -3.85 4 -6.65 7.25 -9.90 2.90 -2.90 9.20 -7.45 10.30 -7.45 0.35 0 1.40 -0.55 2.35 -1.20 2.20 -1.45 8.25 -3.45 14.15 -4.65 5.85 -1.15 19.25 -1.15 24.65 0.05 5.05 1.10 11.25 3.10 14 4.45 l2.25 1.15 -0.05 4.70 c-0.10 6.20 -1.10 24.05 -1.35 24.30 -0.10 0.15 -1.50 -0.45 -3 -1.30 -6.90 -3.80 -14.30 -5.70 -22.10 -5.70 -7.30 -0.05 -11.55 1.25 -15.15 4.45 -3.60 3.25 -4.80 6 -4.85 11 0 8.80 4.35 13.45 22.70 24.10 13.85 8.05 23.15 17.05 27.30 26.50 5.75 12.90 4.50 32.95 -2.80 45.30 -4.80 8.10 -12.85 14.45 -22.85 18.05 -9.80 3.50 -23.95 4.75 -35.10 3.05z"/>
  <path d="M25.50 714.35 c0 -0.35 0.90 -4.25 2 -8.65 3.10 -12.05 9.30 -36.50 11.55 -45.20 1.10 -4.25 3.25 -12.60 4.75 -18.50 1.50 -5.90 3.85 -15.10 5.25 -20.35 1.35 -5.30 3.60 -14.10 5 -19.50 1.40 -5.45 3.10 -12.05 3.75 -14.65 0.70 -2.60 2.50 -9.45 4 -15.25 1.45 -5.75 2.90 -11.15 3.10 -12 l0.40 -1.50 18.95 -0.15 c10.40 -0.05 19.10 0.05 19.30 0.25 0.45 0.50 6.45 23.90 27.50 107.45 6.55 26.15 11.95 47.80 11.95 48.10 0 0.45 -4.15 0.60 -15.65 0.60 l-15.65 0 -3.40 -15.35 c-1.85 -8.50 -3.45 -15.45 -3.50 -15.50 -0.15 -0.20 -40.90 -0.20 -41.05 -0.05 -0.20 0.20 -5.05 21.35 -6.10 26.80 l-0.85 4.10 -15.65 0 c-12.55 0 -15.65 -0.15 -15.65 -0.65z m73 -58.30 c0 -0.25 -0.90 -4.25 -1.95 -8.85 -4.40 -18.65 -11.45 -49.95 -11.65 -51.60 -0.35 -2.80 -1.20 -0.70 -3.15 8.15 -1.15 5.25 -3.30 14.55 -4.70 20.75 -1.45 6.20 -3.60 15.65 -4.85 21 -1.20 5.35 -2.30 10.05 -2.45 10.40 -0.15 0.45 2.90 0.60 14.25 0.60 8.25 0 14.50 -0.20 14.50 -0.45z"/>
  <path d="M159 636.50 l0 -78 15.50 0 15.50 0 0 64.50 0 64.50 22.25 0 22.25 0 0 13.50 0 13.50 -37.75 0 -37.75 0 0 -78z"/>
  <path d="M251.05 636.50 l0.05 -78 15.45 0 15.45 0 0 64.25 0 64.25 22.50 0 22.50 0 0 13.75 0 13.75 -38 0 -38.05 0 0.10 -78z"/>
  <path d="M483.80 711.90 c0.10 -1.45 0.40 -6.25 0.70 -10.65 0.30 -4.40 0.75 -11.15 1 -15 0.30 -3.85 1.65 -24.20 3 -45.25 2.85 -43.80 4.20 -64 5.05 -74.90 l0.60 -7.60 19 0.10 19 0.15 2.45 8.50 c2.85 9.95 11.60 39.20 14.40 48.25 7.35 23.50 9.50 30.50 10 32.40 0.30 1.15 0.70 2.10 0.95 2.10 0.20 0 0.75 -1.40 1.25 -3.10 0.75 -2.75 7.20 -23.55 18.40 -59.15 1.90 -6.05 4.55 -14.80 5.95 -19.50 1.40 -4.65 2.60 -8.80 2.70 -9.10 0.15 -0.50 4.30 -0.65 18.40 -0.65 l18.20 0 0.35 2.90 c0.15 1.55 0.55 6.10 0.80 10.10 0.40 6.40 0.70 10.55 1.75 25.50 0.15 2.05 0.50 6.45 0.75 9.75 0.50 6.60 0.75 9.90 3.30 45.50 0.95 13.50 1.95 27.90 2.20 32 0.30 4.15 0.85 11.90 1.25 17.25 0.40 5.35 0.75 10.50 0.75 11.40 l0 1.60 -14.95 0 -14.95 0 -0.30 -2.35 c-0.40 -3.20 -4.15 -73.35 -5.10 -96 -0.35 -7.70 -0.80 -9.85 -1.50 -6.75 -1.25 5.75 -28.95 92.15 -30.10 94 -0.25 0.35 -2 0.95 -3.90 1.35 -4.15 0.85 -14.80 1.75 -15.30 1.30 -0.25 -0.25 -6.45 -19.80 -15.40 -48.55 -1.05 -3.45 -4.30 -13.80 -7.15 -23 -2.90 -9.20 -5.95 -19.05 -6.80 -21.85 -0.90 -2.80 -1.80 -5.25 -2.05 -5.40 -0.30 -0.20 -0.50 0.70 -0.50 2.10 0 1.35 -0.20 7.05 -0.50 12.65 -0.25 5.65 -0.70 16 -1 23 -0.30 7 -0.75 17.25 -1 22.75 -0.25 5.50 -0.70 15.30 -1 21.75 -0.30 6.45 -0.65 14.75 -0.80 18.40 l-0.30 6.60 -14.90 0 -14.95 0 0.25 -2.60z"/>
  <path d="M658 636.50 l0 -78 14.65 0 c8 0 14.85 0.20 15.15 0.40 0.40 0.25 0.55 22.25 0.50 77.85 l-0.05 77.50 -15.10 0.15 -15.15 0.10 0 -78z"/>
  <path d="M716.35 714.15 c-0.20 -0.15 -0.35 -35.25 -0.35 -78 l0 -77.65 15 0 15 0 0 64.25 0 64.25 23 0 23 0 0 13.75 0 13.75 -37.65 0 c-20.75 0 -37.85 -0.15 -38 -0.35z"/>
  <path d="M809 636.50 l0 -78 38 0 38 0 -0.10 13.80 -0.15 13.75 -22.35 -0.05 -22.40 -0.05 0 18.80 0 18.75 20.25 0 20.25 0 0 13.50 0 13.50 -20.25 0 -20.25 0 0 18.25 0 18.25 23.75 0 23.75 0 0 13.75 0 13.75 -39.25 0 -39.25 0 0 -78z"/>
  <path d="M420.25 506.25 c-16.40 -4.20 -32.10 -18.15 -49 -43.50 -23.80 -35.75 -39.60 -74.75 -47.20 -116.50 -2.65 -14.50 -4.15 -34.75 -2.60 -34.75 0.20 0 1.45 2.10 2.75 4.65 1.35 2.50 5.55 10.35 9.30 17.35 3.75 7 8.05 15 9.50 17.75 1.45 2.75 3 5.70 3.50 6.50 0.45 0.85 1.95 3.55 3.25 6 12.55 23.45 28.60 51.20 38.95 67.25 18.10 28.05 29.25 40 37.35 40 1.95 0 2.80 -0.35 4.85 -1.85 5.45 -4.15 9.30 -10.15 27.85 -43.40 9.25 -16.65 15.35 -25.45 22.50 -32.55 12.70 -12.60 27.45 -15.55 41.15 -8.20 10.65 5.70 20.20 18.60 39.85 54 11.20 20.15 14.10 24.80 17.95 28.90 9.45 10.10 18.65 2.35 36.90 -31.15 15.50 -28.45 32.75 -69.05 42.65 -100.50 6.75 -21.50 11.95 -44.15 14.45 -63 1.80 -13.35 2 -17.05 2.05 -31 0 -15.65 -0.35 -18.75 -3.10 -27.50 -3.45 -11 -10.40 -19.60 -19.65 -24.45 -16.05 -8.35 -33.90 -6.60 -58.70 5.80 -6.40 3.20 -6.90 3.45 -21.15 11.35 -9.85 5.40 -23.90 12.60 -29.15 14.80 -18.65 7.95 -35.60 9.70 -53.35 5.50 -11.35 -2.70 -23.40 -8.30 -32.40 -15.05 -4.30 -3.25 -9.05 -7.55 -8.70 -7.90 0.15 -0.15 2.70 0.60 5.75 1.65 3 1.10 8.15 2.60 11.45 3.35 5.75 1.35 6.55 1.40 18.25 1.45 10.90 0 12.80 -0.15 17.50 -1.15 15.80 -3.45 26.25 -8.30 52.75 -24.50 6.05 -3.70 13.50 -8.25 16.50 -10.10 22.60 -13.80 39.50 -20.85 56.50 -23.55 5.65 -0.90 18.95 -0.80 24.50 0.20 9.15 1.70 19.15 5.55 26.10 10.20 14.70 9.75 26.50 28.45 30.60 48.50 1.95 9.70 2.30 13.60 2.25 27.90 0 17.30 -1.30 29.55 -5.25 49.50 -7.50 37.85 -24.60 86.20 -46.75 132.30 -18.05 37.45 -34.45 63.30 -47 74 -11 9.40 -24.05 14.10 -33.25 11.95 -8.80 -2.05 -17.35 -9.45 -26.10 -22.70 -5.65 -8.45 -7.40 -11.65 -19.75 -36.55 -10.10 -20.25 -14.80 -27.95 -20.40 -33.25 -4 -3.80 -5.55 -4.40 -8.45 -3.30 -6.35 2.45 -13.90 13 -24 33.55 -2.80 5.80 -7.60 15.55 -10.65 21.75 -10.10 20.70 -19.35 32.15 -30.45 37.70 -6.25 3.15 -13.85 4.10 -19.90 2.55z"/>
  <path d="M473.25 344.75 c-21.95 -2.65 -42.10 -8.65 -61.30 -18.25 -35.20 -17.65 -62.80 -42.40 -81.15 -72.65 -5.40 -8.95 -13.30 -25.15 -15.30 -31.55 -0.55 -1.75 -0.70 -1.85 -1.25 -1.15 -1.15 1.60 -5.25 15.10 -6.50 21.40 -3.55 18 -3.80 42.10 -0.55 58.95 0.40 2.05 0.90 4.15 1.10 4.70 0.60 1.50 -0.45 0.80 -3.15 -2.20 -18.75 -20.90 -27.40 -51.55 -22.90 -81.25 2.55 -17.05 10.15 -36.20 20.65 -52.15 l2.70 -4.15 0.45 -7.95 c0.65 -12.25 1.55 -18.35 4.20 -29 2.70 -10.65 8 -23.30 13.40 -32 4.65 -7.45 13.25 -17.75 14.15 -16.85 0.15 0.15 -0.05 2.40 -0.50 4.95 -2.60 15.40 -4.30 33.60 -4.30 45.90 0 6.60 1.20 24.85 1.65 25.30 0.10 0.15 2.90 -0.45 6.15 -1.25 13.45 -3.40 28.15 -5.20 42.95 -5.20 20.80 0.05 40.45 3.40 62 10.70 10.30 3.50 19.20 7.35 33.75 14.65 11.50 5.80 15.10 7.85 15.20 8.55 0.10 0.75 -5.70 0.90 -13.70 0.25 -9.20 -0.70 -12.70 -1.15 -26.25 -3.55 -23.80 -4.15 -33.35 -5.35 -46.50 -5.75 -22.15 -0.75 -38.95 2.80 -59.60 12.55 -3.70 1.75 -5.65 2.95 -5.65 3.45 0 1.55 4.90 15.60 7.25 20.80 16.40 36.60 43.90 65.40 81.25 85.15 17.40 9.15 37.55 15.10 59.10 17.35 6.25 0.65 21.60 0.65 28.65 0 14.50 -1.40 28.65 -4.90 40.25 -10 2.60 -1.15 5.20 -2.20 5.75 -2.40 1.10 -0.30 1.55 -0.55 9 -4.85 5.95 -3.45 15.25 -9.40 15.25 -9.80 0 -0.15 -3 -1.90 -6.60 -3.95 -10.20 -5.70 -12.90 -7.50 -12.90 -8.75 0 -1.50 13.25 -3.85 21.75 -3.85 9.95 -0.10 17.50 2.55 23.40 8.10 5.80 5.45 8.85 12.65 8.85 20.95 0 6.15 -2.55 14.90 -4.15 14.25 -0.30 -0.15 -2.45 -3 -4.70 -6.35 -3.85 -5.80 -9.25 -12.35 -10.15 -12.35 -0.20 0 -3.40 3.05 -7.10 6.80 -11.90 12.20 -22.40 19.75 -38.15 27.45 -15.90 7.85 -27.45 11.40 -46.10 14.30 -9.05 1.40 -31.30 1.75 -40.40 0.70z"/>
 </g>
 <g fill="#d2ae3d">
  <path d="M275.20 837.55 c-0.10 -0.10 -0.20 -20.10 -0.20 -44.40 l0 -44.25 17.15 0.25 c18 0.20 20.40 0.45 27.60 2.95 10.30 3.50 18.45 10.70 23.35 20.50 5.05 10.25 5.90 25.05 2.10 36.80 -2.30 7.05 -8 14.75 -14.45 19.55 -4.75 3.50 -11.70 6.25 -19.50 7.60 -3.25 0.55 -35.60 1.45 -36.05 1z m31.45 -14.05 c10.45 -1.50 18.40 -6.95 22.35 -15.25 2.55 -5.40 3.25 -8.50 3.20 -15 -0.10 -7.35 -1.45 -12.50 -4.70 -17.40 -6.65 -10.10 -15.10 -13.80 -31.35 -13.85 l-6.15 0 0 31 0 31 6.65 0 c3.60 0 8.15 -0.25 10 -0.50z"/>
  <path d="M447.70 837.55 c-0.10 -0.10 -0.20 -20.10 -0.20 -44.40 l0 -44.15 7.20 0 7.25 0 1.30 1.85 c14.20 20.45 38.95 57.40 41.40 61.90 l1.10 2 0.15 -32.85 0.10 -32.90 7 0 7 0 0 44.55 c0 40.45 -0.05 44.55 -0.80 44.25 -0.45 -0.15 -3.65 -0.30 -7.15 -0.30 l-6.40 0 -1.40 -2.10 c-1.40 -2.15 -12.25 -17.50 -20.25 -28.65 -2.35 -3.30 -4.65 -6.55 -5.10 -7.25 -0.45 -0.70 -2.40 -3.50 -4.35 -6.25 -1.95 -2.75 -5.65 -8.20 -8.30 -12.10 -2.65 -3.95 -4.85 -7.15 -4.90 -7.15 -0.05 0 -0.10 14.30 -0.10 31.80 l0 31.75 -6.65 0.10 c-3.70 0.05 -6.80 0 -6.90 -0.10z"/>
  <path d="M566 799.90 l0 -37.90 -13.25 0 -13.25 0 0 -6.50 0 -6.50 33.40 0.10 33.35 0.15 0.05 6.40 0.10 6.35 -12.95 0 -12.95 0 0 37.90 0 37.85 -7.25 0 -7.25 0 0 -37.85z"/>
  <path d="M611.25 837.60 c-0.05 -0.10 0.50 -1.95 1.30 -4.15 1.65 -4.60 1.40 -3.90 7.45 -21.45 2.50 -7.30 5.20 -15.15 6 -17.50 0.75 -2.35 2.55 -7.50 3.90 -11.50 5.65 -16.35 11.60 -33.65 11.60 -33.85 0 -0.05 3.90 -0.15 8.65 -0.15 l8.60 0 2.30 6.90 c3.80 11.15 6.95 20.30 7.45 21.35 0.25 0.55 1.40 3.70 2.50 7 1.15 3.30 2.95 8.35 4 11.25 1.05 2.90 2.25 6.25 2.70 7.50 0.40 1.25 1.70 4.85 2.80 8 1.15 3.15 2.30 6.30 2.50 7 0.25 0.70 1.60 4.40 3 8.25 1.45 3.85 2.70 7.50 2.85 8.15 0.15 0.60 0.45 1.25 0.70 1.40 0.25 0.15 0.45 0.70 0.45 1.30 0 0.80 -0.25 0.95 -1.10 0.70 -0.65 -0.15 -4.20 -0.30 -7.90 -0.30 l-6.75 0 -3.55 -10.15 -3.50 -10.10 -17 -0.15 -17.05 -0.10 -3.45 10.30 -3.45 10.25 -7.40 0.10 c-4.10 0.05 -7.50 0.05 -7.60 -0.05z m51.25 -34.05 c0 -0.25 -1.45 -4.45 -3.20 -9.40 -1.75 -4.90 -4.45 -12.85 -6.05 -17.65 -1.55 -4.80 -3 -9.20 -3.25 -9.75 -0.30 -0.75 -0.70 0.05 -1.70 3.50 -1.10 3.70 -9.85 30.95 -10.70 33.15 -0.15 0.45 2.50 0.60 12.35 0.60 7.20 0 12.55 -0.20 12.55 -0.45z"/>
  <path d="M734.40 837.65 l-24.90 -0.15 0 -44.25 0 -44.25 7.25 0 7.25 0 0 37.50 0 37.50 18 0 18 0 0 7 c0 3.85 -0.15 6.95 -0.35 6.90 -0.25 -0.10 -11.60 -0.20 -25.25 -0.25z"/>
  <path d="M370 793.25 l0 -44.25 26.75 0 26.75 0 0 6.50 0 6.50 -19.50 0 -19.50 0 0 12.50 0 12.50 17.65 0.10 17.60 0.15 0.15 6.40 0.15 6.35 -17.80 0 -17.75 0 0 12 0 12 19.75 0.10 19.80 0.15 0.05 6.50 0 6.50 -27.05 0.15 -27.05 0.10 0 -44.25z"/>
  <path d="M25.20 797.05 c-0.10 -0.10 -0.20 -2.90 -0.20 -6.15 l0 -5.90 108.25 0 108.30 0 -0.15 6.10 -0.15 6.10 -107.90 0 c-59.35 0.05 -108.05 -0.05 -108.15 -0.15z"/>
  <path d="M783.20 797.05 c-0.10 -0.10 -0.20 -2.90 -0.20 -6.15 l0 -5.90 105 0 105 0 -0.15 6.05 -0.10 6.05 -104.65 0.05 c-57.60 0.05 -104.80 0 -104.90 -0.10z"/>
 </g>
</svg>